<svg version="1.1" xmlns="http://www.w3.org/2000/svg" width="28" height="28" viewBox="0 0 256 256">
	<path fill="currentColor" d="M0 0 C84.48 0 168.96 0 256 0 C256 22.11 256 44.22 256 67 C252.37 67 248.74 67 245 67 C245 48.52 245 30.04 245 11 C239.72 11 234.44 11 229 11 C229 29.48 229 47.96 229 67 C225.04 67 221.08 67 217 67 C217 48.52 217 30.04 217 11 C212.05 11 207.1 11 202 11 C202 29.48 202 47.96 202 67 C198.04 67 194.08 67 190 67 C190 48.52 190 30.04 190 11 C185.05 11 180.1 11 175 11 C175 29.48 175 47.96 175 67 C171.04 67 167.08 67 163 67 C163 48.52 163 30.04 163 11 C158.05 11 153.1 11 148 11 C148 29.48 148 47.96 148 67 C144.04 67 140.08 67 136 67 C136 48.52 136 30.04 136 11 C130.72 11 125.44 11 120 11 C120 29.48 120 47.96 120 67 C116.04 67 112.08 67 108 67 C108 48.52 108 30.04 108 11 C103.05 11 98.1 11 93 11 C93 29.48 93 47.96 93 67 C89.04 67 85.08 67 81 67 C81 48.52 81 30.04 81 11 C76.05 11 71.1 11 66 11 C66 29.48 66 47.96 66 67 C62.04 67 58.08 67 54 67 C54 48.52 54 30.04 54 11 C49.05 11 44.1 11 39 11 C39 29.48 39 47.96 39 67 C35.04 67 31.08 67 27 67 C27 48.52 27 30.04 27 11 C21.72 11 16.44 11 11 11 C11 29.48 11 47.96 11 67 C7.37 67 3.74 67 0 67 C0 44.89 0 22.78 0 0 Z " transform="translate(0,117)"></path><path fill="currentColor" d="M0 0 C84.48 0 168.96 0 256 0 C256 3.96 256 7.92 256 12 C171.52 12 87.04 12 0 12 C0 8.04 0 4.08 0 0 Z " transform="translate(0,191)"></path><path fill="currentColor" d="M0 0 C0.6902294 0.18436049 1.38045879 0.36872097 2.09160423 0.55866814 C4.3269467 1.16134311 6.55544022 1.78546947 8.78369141 2.41381836 C9.51939613 2.61814547 10.25510086 2.82247257 11.01309967 3.03299141 C16.5640907 4.57516073 22.10044311 6.16627959 27.63525391 7.76538086 C29.39157262 8.27074502 31.14795203 8.77589829 32.90438843 9.28085327 C36.55036167 10.32964705 40.19580257 11.38026342 43.84082031 12.43237305 C48.50233535 13.77783297 53.16487955 15.11968418 57.82778358 16.46032143 C61.43978636 17.49904145 65.05140084 18.53910589 68.66288376 19.57963181 C70.38273205 20.07508482 72.1026635 20.57024927 73.82268143 21.06511307 C76.21972501 21.75509758 78.61627761 22.44676132 81.01269531 23.13891602 C81.71404602 23.34050827 82.41539673 23.54210052 83.13800049 23.74980164 C87.05860986 24.88439287 90.90749692 26.12175353 94.78369141 27.41381836 C94.78369141 36.65381836 94.78369141 45.89381836 94.78369141 55.41381836 C90.82369141 55.41381836 86.86369141 55.41381836 82.78369141 55.41381836 C82.45369141 49.14381836 82.12369141 42.87381836 81.78369141 36.41381836 C70.87915181 33.24833256 59.97049894 30.0981677 49.05394173 26.97437191 C43.9845161 25.52309427 38.91715361 24.0653224 33.85400391 22.59228516 C28.96305235 21.16961167 24.06734702 19.7645537 19.16793442 18.37130928 C17.30436188 17.8380871 15.44255308 17.29865855 13.58264542 16.75279045 C10.96679709 15.98623534 8.34540995 15.24247205 5.72167969 14.50341797 C4.96281967 14.27540497 4.20395966 14.04739197 3.42210388 13.81246948 C-4.09317486 11.74469711 -11.2333006 12.58538043 -18.66479492 14.77734375 C-19.61242203 15.0520047 -20.56004913 15.32666565 -21.53639221 15.60964966 C-22.53033493 15.90725189 -23.52427765 16.20485413 -24.54833984 16.51147461 C-25.61144882 16.82180634 -26.6745578 17.13213806 -27.7698822 17.45187378 C-31.19185264 18.45226652 -34.61024863 19.46434004 -38.02880859 20.47631836 C-41.54455535 21.50653366 -45.06123823 22.53350505 -48.57803345 23.56013489 C-50.89388098 24.23626538 -53.2094554 24.91333203 -55.52474976 25.59135437 C-64.64981917 28.26078345 -73.79563501 30.84348334 -82.96630859 33.35131836 C-84.14684814 33.67430908 -85.3273877 33.9972998 -86.54370117 34.33007812 C-89.10047649 35.02745238 -91.65824266 35.72119324 -94.21630859 36.41381836 C-94.54630859 42.68381836 -94.87630859 48.95381836 -95.21630859 55.41381836 C-99.17630859 55.41381836 -103.13630859 55.41381836 -107.21630859 55.41381836 C-107.21630859 46.17381836 -107.21630859 36.93381836 -107.21630859 27.41381836 C-85.15896617 20.70071414 -63.01653394 14.31847962 -40.84326172 7.99975586 C-39.66380981 7.6631192 -38.48435791 7.32648254 -37.26916504 6.97964478 C-34.96493517 6.32501479 -32.65920701 5.67563305 -30.35192871 5.03182983 C-23.61017717 3.14651516 -23.61017717 3.14651516 -16.98193359 0.90454102 C-10.64787266 -1.33548817 -6.54117197 -1.77897616 0 0 Z " transform="translate(134.21630859375,54.586181640625)"></path><path fill="currentColor" d="M0 0 C8.14858119 5.56720584 14.41855393 11.65034635 18.25 20.8125 C13.53591594 21.15696622 8.95578998 21.32517207 4.25 20.8125 C1.5625 18.25 1.5625 18.25 0.5625 16.6015625 C-4.26293487 10.02403521 -13.90303081 6.10494198 -21.75 4.8125 C-33.99166567 3.57596811 -44.24063009 6.12019236 -53.8125 13.93359375 C-55.88934043 15.81450523 -55.88934043 15.81450523 -57.546875 18.515625 C-59.75 20.8125 -59.75 20.8125 -63.203125 21.30078125 C-64.45609375 21.24277344 -65.7090625 21.18476562 -67 21.125 C-68.26328125 21.07988281 -69.5265625 21.03476563 -70.828125 20.98828125 C-71.79234375 20.93027344 -72.7565625 20.87226562 -73.75 20.8125 C-70.95259305 10.82590213 -63.19914556 4.4430305 -54.53125 -0.71875 C-37.10204166 -9.92293868 -17.17660668 -10.20157579 0 0 Z " transform="translate(156.75,89.1875)">
	</path>
</svg>